<svg version="1" xmlns="http://www.w3.org/2000/svg" width="488" height="488" viewBox="0 0 366.000000 366.000000"><path d="M26.9 16.2c0 .7-.1 8.4-.1 17 0 13.9-.2 15.8-1.7 15.9h-9.9c-7.7.1-8.6.3-11.5 2.9L.5 54.8v130.9c-.1 75.9.3 132 .8 133.6.5 1.5 1.9 3.3 3.1 4 1.6.9 18.6 1.3 68.6 1.7l66.5.5 5.5 2.8c3.7 1.8 6.9 4.6 9.8 8.2 9.7 12.4 23.8 17.2 38.3 12.9 7.1-2.1 9.9-4.1 18.9-13.4 11.3-11.7 6-11 83.1-11h64.8l2.8-2.4 2.8-2.4V53.7l-2.8-2c-2.2-1.7-4.5-2.2-12.4-2.5-5.4-.2-9.9-.5-10.2-.7-.2-.3-.4-7.8-.5-16.7l-.1-16.3-68.6-.2-68.5-.3-4.4 2.4c-5.3 2.8-10.4 7.8-12.1 11.7-1.4 3.5-3.6 3.7-4.9.6-1.6-4-8.4-10.6-13.1-12.6-4.4-2-6.6-2-72.7-2.1-54.3 0-68.2.2-68.3 1.2z"/></svg>