<svg version="1" xmlns="http://www.w3.org/2000/svg" width="978.667" height="978.667" viewBox="0 0 734.000000 734.000000"><path d="M19.4 100.9c-7.3.6-9.8 1.8-13.4 6.6-3.9 5.1-3.8-.6-3.9 269.3-.1 282.6-.5 263.7 5.1 268.9 5.9 5.6-1 5.3 136.3 5.3 138 0 133.2-.2 146.3 5.6 7.6 3.4 12.5 7.5 20.3 17.5 10.6 13.4 22.7 22 36.9 26.3 3 1 10.5 2 16.5 2.3 13.4.6 21.3-1 33-6.7 10.9-5.3 16.3-9.7 27-21.9 10.3-11.6 17.5-17 27.3-20.3l6.7-2.3L589 651c97-.4 132-.8 133.5-1.7 3.2-1.8 6.3-5.5 8-9.5 1.3-3.3 1.5-31.4 1.5-264.8 0-260 0-261.1-2-265-1.1-2.2-3.8-5.2-5.9-6.6-3.8-2.5-4.2-2.5-24.2-2.7l-20.4-.2-.2 248c-.3 231.8-.4 248.1-2 249.2-1.3 1-31.5 1.3-142.7 1.3H393.5l-6 2.8c-8 3.8-12 7.4-15.7 13.9-3.9 6.9-5.7 6.9-9.6 0-3.6-6.4-7.8-10.1-15.2-13.6l-5.5-2.6-142.1-.3c-117.2-.2-142.4-.5-143.3-1.6-.8-.9-1.2-69.5-1.3-249.2l-.3-247.9-14-.1c-7.7-.1-17.2.2-21.1.5z"/><path d="M349.4 138.6c-40.3 6.7-73.3 33-87.9 69.8-5.8 14.9-7.7 24.8-7.8 41.1 0 10.5.5 17.2 1.6 22.3 8.3 36.3 28.3 62.6 60.5 79.2 6.9 3.6 8.2 4.6 8.2 6.7 0 1.3-15.7 41.6-35 89.4-19.2 47.8-35 87.4-35 87.9 0 .6 41.2 1 113.1 1h113.1l-.6-2.3c-.3-1.2-16.1-40.8-35.1-88s-34.6-86.7-34.8-87.8c-.2-1.7 1.4-3 7.9-6.3 17.7-9.3 33.4-22.9 43.3-37.5 14.4-21.2 21.7-49.7 19.2-75-2.9-28.5-15.9-53.7-38.1-73.8-24.2-21.8-60.1-32.2-92.6-26.7z"/></svg>