<?xml version="1.0" encoding="utf-8"?>
<!-- Generator: Adobe Illustrator 16.0.0, SVG Export Plug-In . SVG Version: 6.00 Build 0)  -->
<!DOCTYPE svg PUBLIC "-//W3C//DTD SVG 1.1//EN" "http://www.w3.org/Graphics/SVG/1.1/DTD/svg11.dtd">
<svg version="1.1" id="Layer_1" xmlns="http://www.w3.org/2000/svg" xmlns:xlink="http://www.w3.org/1999/xlink" x="0px" y="0px"
	 width="367.154px" height="337.832px" viewBox="0 0 367.154 337.832" enable-background="new 0 0 367.154 337.832"
	 xml:space="preserve">
<g>
	<path fill-rule="evenodd" clip-rule="evenodd" fill="#FEFEFE" d="M26.968,35.126c0.448-0.995,0.266-2.051,0.268-3.078
		c0.014-9.358,0.075-18.718-0.048-28.075C27.156,1.588,27.998,0.997,30.252,1c41.354,0.058,82.708,0.047,124.061,0.057
		c2.079,0,4.165-0.035,6.236,0.111c8.139,0.574,14.116,4.871,18.73,11.267c1.037,1.438,2.314,2.839,2.536,4.803
		c0.093,0.826,0.849,1.368,1.752,1.362c1.02-0.006,1.532-0.689,1.889-1.571c2.774-6.851,7.754-11.331,14.497-14.293
		c2.767-1.216,5.449-1.649,8.319-1.651c43.033-0.025,86.067-0.026,129.101-0.081c2.054-0.002,2.584,0.818,2.569,2.73
		c-0.072,9.438-0.046,18.877-0.033,28.315c0.002,1.027-0.18,2.083,0.269,3.075c-0.48,0.886-0.4,1.857-0.4,2.813
		c0.005,81.273,0.004,162.545,0.058,243.818c0.001,2.246-0.562,3.103-2.956,3.1c-44.316-0.063-88.632-0.052-132.948-0.052
		c-1.76,0-3.52,0.026-5.277,0.079c-1.373,0.042-2.643,0.44-3.924,0.973c-4.374,1.815-7.899,4.449-9.543,9.108
		c-0.252,0.714-0.805,1.217-1.626,1.211s-1.306-0.537-1.623-1.229c-0.529-1.155-0.915-2.352-1.745-3.389
		c-3.819-4.774-8.762-6.793-14.839-6.784c-45.036,0.063-90.072,0.029-135.108,0.084c-2.165,0.002-2.944-0.604-2.943-2.854
		c0.054-81.273,0.056-162.546,0.061-243.818C27.365,37.149,27.484,36.095,26.968,35.126z M240.251,253.15
		c-0.257-0.724-0.422-1.246-0.624-1.753c-4.126-10.297-8.249-20.595-12.386-30.887c-7.409-18.437-14.808-36.878-22.273-55.292
		c-0.674-1.662-0.619-2.482,1.245-3.165c2.848-1.041,5.445-2.643,8.032-4.242c24.865-15.37,33.583-49.463,19.113-74.836
		c-15.414-27.03-47.78-36.915-75.657-23.105c-22.706,11.248-35.444,38.157-29.531,62.634c4.43,18.343,15.316,31.499,32.432,39.399
		c2.027,0.936,2.262,1.657,1.459,3.642c-11.312,27.962-22.542,55.957-33.764,83.955c-0.463,1.155-1.202,2.252-1.171,3.649
		C164.751,253.15,202.333,253.15,240.251,253.15z"/>
	<path fill-rule="evenodd" clip-rule="evenodd" fill="#673AB7" d="M26.968,35.126c0.516,0.968,0.397,2.023,0.397,3.056
		c-0.005,81.272-0.007,162.545-0.061,243.818c-0.001,2.251,0.778,2.856,2.943,2.854c45.036-0.055,90.072-0.021,135.108-0.084
		c6.077-0.009,11.02,2.01,14.839,6.784c0.83,1.037,1.215,2.233,1.745,3.389c0.317,0.692,0.801,1.224,1.623,1.229
		s1.374-0.497,1.626-1.211c1.644-4.659,5.169-7.293,9.543-9.108c1.281-0.532,2.551-0.931,3.924-0.973
		c1.758-0.053,3.518-0.079,5.277-0.079c44.316,0,88.632-0.011,132.948,0.052c2.395,0.003,2.957-0.854,2.956-3.1
		c-0.054-81.273-0.053-162.545-0.058-243.818c0-0.955-0.08-1.927,0.4-2.813c6.226,0.466,12.466,0.136,18.695,0.328
		c3.063,0.094,7.039,4.196,7.167,7.265c0.039,0.959,0.03,1.92,0.03,2.879c0.001,84.952-0.026,169.904,0.083,254.855
		c0.005,4.125-1.26,7.03-4.543,9.306c-0.835,0.579-1.627,0.956-2.625,0.958c-1.68,0.004-3.359,0.039-5.039,0.039
		c-39.916,0.003-79.832-0.046-119.748,0.046c-7.412,0.018-14.119,2.385-19.339,7.936c-2.072,2.204-3.805,4.713-5.892,6.929
		c-4.047,4.298-8.791,7.188-14.4,9.262c-6.329,2.341-12.668,2.327-18.844,1.032c-8.474-1.776-15.382-6.663-20.542-13.714
		c-2.646-3.615-5.696-6.923-9.747-8.64c-4.051-1.716-8.358-2.909-12.968-2.899c-40.396,0.086-80.792,0.002-121.188,0.123
		c-4.006,0.012-6.878-1.223-9.127-4.427c-0.633-0.902-1.062-1.744-1.049-2.831c0.011-1.04-0.027-2.079-0.027-3.119
		C1.074,215.499,1.097,130.548,1,45.596c-0.004-4.012,1.228-6.872,4.44-9.109c0.902-0.629,1.746-1.035,2.831-1.057
		C14.503,35.303,20.741,35.591,26.968,35.126z"/>
	<path fill-rule="evenodd" clip-rule="evenodd" fill="#673AB7" d="M240.251,253.15c-37.918,0-75.5,0-113.124,0
		c-0.031-1.397,0.708-2.494,1.171-3.649c11.222-27.998,22.452-55.993,33.764-83.955c0.803-1.984,0.567-2.706-1.459-3.642
		c-17.116-7.9-28.002-21.057-32.432-39.399c-5.913-24.478,6.826-51.386,29.531-62.634c27.876-13.81,60.243-3.925,75.657,23.105
		c14.47,25.374,5.752,59.466-19.113,74.836c-2.587,1.599-5.185,3.201-8.032,4.242c-1.864,0.682-1.919,1.503-1.245,3.165
		c7.466,18.414,14.864,36.855,22.273,55.292c4.137,10.292,8.26,20.59,12.386,30.887C239.829,251.904,239.994,252.427,240.251,253.15
		z"/>
</g>
</svg>
